STARTFONT 2.1
COMMENT
COMMENT Converted from OpenType font "CourierPrime-Regular.ttf" by "otf2bdf 3.0".
COMMENT
FONT -FreeType-Courier Prime-Medium-R-Normal--12-90-100-100-P-64-ISO10646-1
SIZE 9 100 100
FONTBOUNDINGBOX 15 15 -5 -3
STARTPROPERTIES 19
FOUNDRY "FreeType"
FAMILY_NAME "Courier Prime"
WEIGHT_NAME "Medium"
SLANT "R"
SETWIDTH_NAME "Normal"
ADD_STYLE_NAME ""
PIXEL_SIZE 12
POINT_SIZE 90
RESOLUTION_X 100
RESOLUTION_Y 100
SPACING "P"
AVERAGE_WIDTH 64
CHARSET_REGISTRY "ISO10646"
CHARSET_ENCODING "1"
FONT_ASCENT 10
FONT_DESCENT 4
COPYRIGHT "Copyright 2015 The Courier Prime Project Authors (https://github.com/quoteunquoteapps/CourierPrime)."
_OTF_FONTFILE "CourierPrime-Regular.ttf"
_OTF_PSNAME "CourierPrime-Regular"
ENDPROPERTIES
CHARS 383
STARTCHAR 000D
ENCODING 13
SWIDTH 640 0
DWIDTH 8 0
BBX 0 0 0 0
BITMAP
ENDCHAR
STARTCHAR 0020
ENCODING 32
SWIDTH 640 0
DWIDTH 8 0
BBX 0 0 0 0
BITMAP
ENDCHAR
STARTCHAR 0021
ENCODING 33
SWIDTH 640 0
DWIDTH 8 0
BBX 2 8 3 0
BITMAP
C0
80
80
80
80
00
C0
C0
ENDCHAR
STARTCHAR 0022
ENCODING 34
SWIDTH 640 0
DWIDTH 8 0
BBX 4 3 2 5
BITMAP
90
90
90
ENDCHAR
STARTCHAR 0023
ENCODING 35
SWIDTH 640 0
DWIDTH 8 0
BBX 7 8 0 0
BITMAP
12
14
7E
24
24
FE
28
48
ENDCHAR
STARTCHAR 0024
ENCODING 36
SWIDTH 640 0
DWIDTH 8 0
BBX 6 9 1 -1
BITMAP
20
78
A8
E0
3C
A4
F8
20
20
ENDCHAR
STARTCHAR 0025
ENCODING 37
SWIDTH 640 0
DWIDTH 8 0
BBX 7 8 0 0
BITMAP
60
92
94
68
16
2A
4A
06
ENDCHAR
STARTCHAR 0026
ENCODING 38
SWIDTH 640 0
DWIDTH 8 0
BBX 6 8 1 0
BITMAP
70
48
40
40
EC
98
98
7C
ENDCHAR
STARTCHAR 0027
ENCODING 39
SWIDTH 640 0
DWIDTH 8 0
BBX 2 3 3 5
BITMAP
C0
80
80
ENDCHAR
STARTCHAR 0028
ENCODING 40
SWIDTH 640 0
DWIDTH 8 0
BBX 3 11 2 -2
BITMAP
20
60
40
80
80
80
80
80
40
60
20
ENDCHAR
STARTCHAR 0029
ENCODING 41
SWIDTH 640 0
DWIDTH 8 0
BBX 4 11 2 -3
BITMAP
C0
60
20
10
10
10
10
10
20
40
80
ENDCHAR
STARTCHAR 002A
ENCODING 42
SWIDTH 640 0
DWIDTH 8 0
BBX 6 5 1 3
BITMAP
20
20
EC
30
58
ENDCHAR
STARTCHAR 002B
ENCODING 43
SWIDTH 640 0
DWIDTH 8 0
BBX 6 6 1 1
BITMAP
20
20
20
FC
20
20
ENDCHAR
STARTCHAR 002C
ENCODING 44
SWIDTH 640 0
DWIDTH 8 0
BBX 3 4 2 -2
BITMAP
60
40
40
80
ENDCHAR
STARTCHAR 002D
ENCODING 45
SWIDTH 640 0
DWIDTH 8 0
BBX 6 1 1 3
BITMAP
FC
ENDCHAR
STARTCHAR 002E
ENCODING 46
SWIDTH 640 0
DWIDTH 8 0
BBX 2 2 3 0
BITMAP
C0
C0
ENDCHAR
STARTCHAR 002F
ENCODING 47
SWIDTH 640 0
DWIDTH 8 0
BBX 6 10 1 -2
BITMAP
0C
08
08
10
10
20
20
40
40
80
ENDCHAR
STARTCHAR 0030
ENCODING 48
SWIDTH 640 0
DWIDTH 8 0
BBX 6 8 1 0
BITMAP
70
48
88
84
84
88
48
70
ENDCHAR
STARTCHAR 0031
ENCODING 49
SWIDTH 640 0
DWIDTH 8 0
BBX 6 8 1 0
BITMAP
30
70
90
10
10
10
10
FC
ENDCHAR
STARTCHAR 0032
ENCODING 50
SWIDTH 640 0
DWIDTH 8 0
BBX 5 8 1 0
BITMAP
70
88
88
08
10
20
48
F8
ENDCHAR
STARTCHAR 0033
ENCODING 51
SWIDTH 640 0
DWIDTH 8 0
BBX 5 8 1 0
BITMAP
70
48
08
30
08
08
88
70
ENDCHAR
STARTCHAR 0034
ENCODING 52
SWIDTH 640 0
DWIDTH 8 0
BBX 6 8 1 0
BITMAP
10
30
30
50
D0
FC
10
3C
ENDCHAR
STARTCHAR 0035
ENCODING 53
SWIDTH 640 0
DWIDTH 8 0
BBX 5 8 1 0
BITMAP
78
40
40
78
08
08
88
70
ENDCHAR
STARTCHAR 0036
ENCODING 54
SWIDTH 640 0
DWIDTH 8 0
BBX 6 8 1 0
BITMAP
18
60
40
B8
C8
84
48
78
ENDCHAR
STARTCHAR 0037
ENCODING 55
SWIDTH 640 0
DWIDTH 8 0
BBX 6 8 1 0
BITMAP
FC
88
08
10
10
10
20
20
ENDCHAR
STARTCHAR 0038
ENCODING 56
SWIDTH 640 0
DWIDTH 8 0
BBX 5 8 1 0
BITMAP
70
48
48
30
48
88
48
70
ENDCHAR
STARTCHAR 0039
ENCODING 57
SWIDTH 640 0
DWIDTH 8 0
BBX 6 8 1 0
BITMAP
70
C8
88
CC
78
08
18
60
ENDCHAR
STARTCHAR 003A
ENCODING 58
SWIDTH 640 0
DWIDTH 8 0
BBX 2 6 3 0
BITMAP
C0
C0
00
00
C0
C0
ENDCHAR
STARTCHAR 003B
ENCODING 59
SWIDTH 640 0
DWIDTH 8 0
BBX 3 8 2 -2
BITMAP
60
60
00
00
60
40
40
C0
ENDCHAR
STARTCHAR 003C
ENCODING 60
SWIDTH 640 0
DWIDTH 8 0
BBX 6 6 1 1
BITMAP
0C
30
C0
C0
30
0C
ENDCHAR
STARTCHAR 003D
ENCODING 61
SWIDTH 640 0
DWIDTH 8 0
BBX 6 3 1 2
BITMAP
FC
00
FC
ENDCHAR
STARTCHAR 003E
ENCODING 62
SWIDTH 640 0
DWIDTH 8 0
BBX 6 6 1 1
BITMAP
C0
70
0C
0C
30
C0
ENDCHAR
STARTCHAR 003F
ENCODING 63
SWIDTH 640 0
DWIDTH 8 0
BBX 4 8 2 0
BITMAP
E0
90
10
30
40
40
00
40
ENDCHAR
STARTCHAR 0040
ENCODING 64
SWIDTH 640 0
DWIDTH 8 0
BBX 7 8 0 -1
BITMAP
3C
42
5E
AA
AA
B6
40
3C
ENDCHAR
STARTCHAR 0041
ENCODING 65
SWIDTH 640 0
DWIDTH 8 0
BBX 8 8 0 0
BITMAP
78
18
38
24
24
7C
42
E7
ENDCHAR
STARTCHAR 0042
ENCODING 66
SWIDTH 640 0
DWIDTH 8 0
BBX 6 8 1 0
BITMAP
F8
48
48
48
78
44
44
F8
ENDCHAR
STARTCHAR 0043
ENCODING 67
SWIDTH 640 0
DWIDTH 8 0
BBX 6 8 1 0
BITMAP
7C
C4
84
80
80
80
C4
78
ENDCHAR
STARTCHAR 0044
ENCODING 68
SWIDTH 640 0
DWIDTH 8 0
BBX 6 8 1 0
BITMAP
F8
4C
44
44
44
44
4C
F8
ENDCHAR
STARTCHAR 0045
ENCODING 69
SWIDTH 640 0
DWIDTH 8 0
BBX 6 8 1 0
BITMAP
FC
44
44
50
70
50
44
FC
ENDCHAR
STARTCHAR 0046
ENCODING 70
SWIDTH 640 0
DWIDTH 8 0
BBX 6 8 1 0
BITMAP
FC
44
44
50
70
50
40
F0
ENDCHAR
STARTCHAR 0047
ENCODING 71
SWIDTH 640 0
DWIDTH 8 0
BBX 6 8 1 0
BITMAP
7C
CC
84
80
9C
84
C4
78
ENDCHAR
STARTCHAR 0048
ENCODING 72
SWIDTH 640 0
DWIDTH 8 0
BBX 6 8 1 0
BITMAP
DC
88
88
88
F8
88
88
DC
ENDCHAR
STARTCHAR 0049
ENCODING 73
SWIDTH 640 0
DWIDTH 8 0
BBX 6 8 1 0
BITMAP
F8
20
20
20
20
20
20
FC
ENDCHAR
STARTCHAR 004A
ENCODING 74
SWIDTH 640 0
DWIDTH 8 0
BBX 6 8 1 0
BITMAP
7C
08
08
08
88
88
98
F0
ENDCHAR
STARTCHAR 004B
ENCODING 75
SWIDTH 640 0
DWIDTH 8 0
BBX 7 8 1 0
BITMAP
FC
48
50
60
70
48
48
E6
ENDCHAR
STARTCHAR 004C
ENCODING 76
SWIDTH 640 0
DWIDTH 8 0
BBX 6 8 1 0
BITMAP
F0
40
40
40
44
44
44
FC
ENDCHAR
STARTCHAR 004D
ENCODING 77
SWIDTH 640 0
DWIDTH 8 0
BBX 8 8 0 0
BITMAP
E6
66
6A
5A
5A
52
42
E7
ENDCHAR
STARTCHAR 004E
ENCODING 78
SWIDTH 640 0
DWIDTH 8 0
BBX 7 8 0 0
BITMAP
EE
62
52
52
4A
4A
46
72
ENDCHAR
STARTCHAR 004F
ENCODING 79
SWIDTH 640 0
DWIDTH 8 0
BBX 6 8 1 0
BITMAP
78
8C
84
84
84
84
8C
78
ENDCHAR
STARTCHAR 0050
ENCODING 80
SWIDTH 640 0
DWIDTH 8 0
BBX 6 8 1 0
BITMAP
F8
44
44
44
78
40
40
F0
ENDCHAR
STARTCHAR 0051
ENCODING 81
SWIDTH 640 0
DWIDTH 8 0
BBX 6 10 1 -2
BITMAP
78
8C
84
84
84
84
8C
78
40
FC
ENDCHAR
STARTCHAR 0052
ENCODING 82
SWIDTH 640 0
DWIDTH 8 0
BBX 7 8 1 0
BITMAP
F8
48
44
48
70
48
48
E6
ENDCHAR
STARTCHAR 0053
ENCODING 83
SWIDTH 640 0
DWIDTH 8 0
BBX 6 8 1 0
BITMAP
78
88
80
70
08
84
C4
F8
ENDCHAR
STARTCHAR 0054
ENCODING 84
SWIDTH 640 0
DWIDTH 8 0
BBX 6 8 1 0
BITMAP
FC
A4
A4
20
20
20
20
78
ENDCHAR
STARTCHAR 0055
ENCODING 85
SWIDTH 640 0
DWIDTH 8 0
BBX 7 8 0 0
BITMAP
EE
42
42
42
42
42
64
3C
ENDCHAR
STARTCHAR 0056
ENCODING 86
SWIDTH 640 0
DWIDTH 8 0
BBX 8 8 0 0
BITMAP
E7
42
44
24
24
28
18
18
ENDCHAR
STARTCHAR 0057
ENCODING 87
SWIDTH 640 0
DWIDTH 8 0
BBX 8 8 0 0
BITMAP
E7
42
52
5A
5A
6A
64
64
ENDCHAR
STARTCHAR 0058
ENCODING 88
SWIDTH 640 0
DWIDTH 8 0
BBX 7 8 0 0
BITMAP
66
24
38
18
18
2C
64
EE
ENDCHAR
STARTCHAR 0059
ENCODING 89
SWIDTH 640 0
DWIDTH 8 0
BBX 7 8 0 0
BITMAP
E6
24
24
18
10
10
10
3C
ENDCHAR
STARTCHAR 005A
ENCODING 90
SWIDTH 640 0
DWIDTH 8 0
BBX 6 8 1 0
BITMAP
FC
88
90
10
20
44
44
FC
ENDCHAR
STARTCHAR 005B
ENCODING 91
SWIDTH 640 0
DWIDTH 8 0
BBX 4 11 2 -2
BITMAP
F0
80
80
80
80
80
80
80
80
80
F0
ENDCHAR
STARTCHAR 005C
ENCODING 92
SWIDTH 640 0
DWIDTH 8 0
BBX 6 10 1 -2
BITMAP
80
40
40
20
20
10
10
18
08
0C
ENDCHAR
STARTCHAR 005D
ENCODING 93
SWIDTH 640 0
DWIDTH 8 0
BBX 4 11 2 -2
BITMAP
F0
10
10
10
10
10
10
10
10
10
F0
ENDCHAR
STARTCHAR 005E
ENCODING 94
SWIDTH 640 0
DWIDTH 8 0
BBX 5 5 1 3
BITMAP
20
30
30
48
C8
ENDCHAR
STARTCHAR 005F
ENCODING 95
SWIDTH 640 0
DWIDTH 8 0
BBX 8 1 0 -3
BITMAP
FF
ENDCHAR
STARTCHAR 0060
ENCODING 96
SWIDTH 640 0
DWIDTH 8 0
BBX 3 3 2 7
BITMAP
80
C0
20
ENDCHAR
STARTCHAR 0061
ENCODING 97
SWIDTH 640 0
DWIDTH 8 0
BBX 6 6 1 0
BITMAP
F8
08
78
88
88
F4
ENDCHAR
STARTCHAR 0062
ENCODING 98
SWIDTH 640 0
DWIDTH 8 0
BBX 7 8 0 0
BITMAP
C0
40
5C
62
42
42
62
DC
ENDCHAR
STARTCHAR 0063
ENCODING 99
SWIDTH 640 0
DWIDTH 8 0
BBX 6 6 1 0
BITMAP
74
8C
84
80
84
78
ENDCHAR
STARTCHAR 0064
ENCODING 100
SWIDTH 640 0
DWIDTH 8 0
BBX 6 8 1 0
BITMAP
1C
04
74
8C
84
84
8C
74
ENDCHAR
STARTCHAR 0065
ENCODING 101
SWIDTH 640 0
DWIDTH 8 0
BBX 6 6 1 0
BITMAP
78
84
FC
80
84
78
ENDCHAR
STARTCHAR 0066
ENCODING 102
SWIDTH 640 0
DWIDTH 8 0
BBX 6 8 1 0
BITMAP
1C
20
20
F8
20
20
20
F8
ENDCHAR
STARTCHAR 0067
ENCODING 103
SWIDTH 640 0
DWIDTH 8 0
BBX 6 8 1 -2
BITMAP
74
8C
84
84
8C
74
08
F8
ENDCHAR
STARTCHAR 0068
ENCODING 104
SWIDTH 640 0
DWIDTH 8 0
BBX 7 8 0 0
BITMAP
C0
40
5C
64
64
44
44
6E
ENDCHAR
STARTCHAR 0069
ENCODING 105
SWIDTH 640 0
DWIDTH 8 0
BBX 6 9 1 0
BITMAP
30
30
00
70
10
10
10
10
FC
ENDCHAR
STARTCHAR 006A
ENCODING 106
SWIDTH 640 0
DWIDTH 8 0
BBX 5 11 1 -2
BITMAP
08
08
00
78
08
08
08
08
08
88
70
ENDCHAR
STARTCHAR 006B
ENCODING 107
SWIDTH 640 0
DWIDTH 8 0
BBX 7 8 0 0
BITMAP
E0
20
2E
2C
38
28
24
6E
ENDCHAR
STARTCHAR 006C
ENCODING 108
SWIDTH 640 0
DWIDTH 8 0
BBX 6 8 1 0
BITMAP
E0
20
20
20
20
20
20
FC
ENDCHAR
STARTCHAR 006D
ENCODING 109
SWIDTH 640 0
DWIDTH 8 0
BBX 8 6 0 0
BITMAP
F6
4A
4A
4A
4A
EB
ENDCHAR
STARTCHAR 006E
ENCODING 110
SWIDTH 640 0
DWIDTH 8 0
BBX 7 6 0 0
BITMAP
DC
24
22
22
22
66
ENDCHAR
STARTCHAR 006F
ENCODING 111
SWIDTH 640 0
DWIDTH 8 0
BBX 6 6 1 0
BITMAP
78
8C
84
84
8C
78
ENDCHAR
STARTCHAR 0070
ENCODING 112
SWIDTH 640 0
DWIDTH 8 0
BBX 7 8 0 -2
BITMAP
DC
62
42
42
62
5C
40
F0
ENDCHAR
STARTCHAR 0071
ENCODING 113
SWIDTH 640 0
DWIDTH 8 0
BBX 7 8 1 -2
BITMAP
74
8C
84
84
8C
74
04
1E
ENDCHAR
STARTCHAR 0072
ENCODING 114
SWIDTH 640 0
DWIDTH 8 0
BBX 6 6 1 0
BITMAP
DC
60
60
40
40
F8
ENDCHAR
STARTCHAR 0073
ENCODING 115
SWIDTH 640 0
DWIDTH 8 0
BBX 6 6 1 0
BITMAP
78
88
F0
0C
84
F8
ENDCHAR
STARTCHAR 0074
ENCODING 116
SWIDTH 640 0
DWIDTH 8 0
BBX 6 8 1 0
BITMAP
40
40
F8
40
40
40
24
38
ENDCHAR
STARTCHAR 0075
ENCODING 117
SWIDTH 640 0
DWIDTH 8 0
BBX 7 6 0 0
BITMAP
CC
44
44
44
44
3E
ENDCHAR
STARTCHAR 0076
ENCODING 118
SWIDTH 640 0
DWIDTH 8 0
BBX 7 6 0 0
BITMAP
E6
44
24
24
18
18
ENDCHAR
STARTCHAR 0077
ENCODING 119
SWIDTH 640 0
DWIDTH 8 0
BBX 8 6 0 0
BITMAP
E7
52
5A
5A
6C
24
ENDCHAR
STARTCHAR 0078
ENCODING 120
SWIDTH 640 0
DWIDTH 8 0
BBX 7 6 0 0
BITMAP
66
24
18
18
24
EE
ENDCHAR
STARTCHAR 0079
ENCODING 121
SWIDTH 640 0
DWIDTH 8 0
BBX 7 8 0 -2
BITMAP
E6
44
24
18
18
10
10
60
ENDCHAR
STARTCHAR 007A
ENCODING 122
SWIDTH 640 0
DWIDTH 8 0
BBX 6 6 1 0
BITMAP
FC
88
10
20
44
FC
ENDCHAR
STARTCHAR 007B
ENCODING 123
SWIDTH 640 0
DWIDTH 8 0
BBX 5 11 1 -3
BITMAP
18
20
20
20
20
C0
20
20
20
20
18
ENDCHAR
STARTCHAR 007C
ENCODING 124
SWIDTH 640 0
DWIDTH 8 0
BBX 1 10 3 -2
BITMAP
80
80
80
80
80
80
80
80
80
80
ENDCHAR
STARTCHAR 007D
ENCODING 125
SWIDTH 640 0
DWIDTH 8 0
BBX 5 11 2 -3
BITMAP
C0
40
20
20
20
18
20
20
20
60
C0
ENDCHAR
STARTCHAR 007E
ENCODING 126
SWIDTH 640 0
DWIDTH 8 0
BBX 6 2 1 3
BITMAP
E4
98
ENDCHAR
STARTCHAR 00A0
ENCODING 160
SWIDTH 640 0
DWIDTH 8 0
BBX 0 0 0 0
BITMAP
ENDCHAR
STARTCHAR 00A1
ENCODING 161
SWIDTH 640 0
DWIDTH 8 0
BBX 2 8 3 -2
BITMAP
C0
C0
00
80
80
80
80
C0
ENDCHAR
STARTCHAR 00A2
ENCODING 162
SWIDTH 640 0
DWIDTH 8 0
BBX 6 9 1 -1
BITMAP
20
74
EC
A4
A0
A0
7C
20
20
ENDCHAR
STARTCHAR 00A3
ENCODING 163
SWIDTH 640 0
DWIDTH 8 0
BBX 6 8 1 0
BITMAP
78
48
40
40
F8
20
40
FC
ENDCHAR
STARTCHAR 00A4
ENCODING 164
SWIDTH 640 0
DWIDTH 8 0
BBX 6 6 1 1
BITMAP
FC
48
84
48
FC
84
ENDCHAR
STARTCHAR 00A5
ENCODING 165
SWIDTH 640 0
DWIDTH 8 0
BBX 7 8 0 0
BITMAP
E6
64
24
7E
18
7E
10
3C
ENDCHAR
STARTCHAR 00A6
ENCODING 166
SWIDTH 640 0
DWIDTH 8 0
BBX 1 10 3 -2
BITMAP
80
80
80
80
00
00
80
80
80
80
ENDCHAR
STARTCHAR 00A7
ENCODING 167
SWIDTH 640 0
DWIDTH 8 0
BBX 6 9 1 -1
BITMAP
78
48
40
B0
C8
34
18
88
70
ENDCHAR
STARTCHAR 00A8
ENCODING 168
SWIDTH 640 0
DWIDTH 8 0
BBX 4 2 2 7
BITMAP
90
90
ENDCHAR
STARTCHAR 00A9
ENCODING 169
SWIDTH 640 0
DWIDTH 8 0
BBX 8 8 0 0
BITMAP
3C
42
9A
A1
A1
9A
42
3C
ENDCHAR
STARTCHAR 00AA
ENCODING 170
SWIDTH 640 0
DWIDTH 8 0
BBX 5 5 2 3
BITMAP
E0
10
F0
90
F8
ENDCHAR
STARTCHAR 00AB
ENCODING 171
SWIDTH 640 0
DWIDTH 8 0
BBX 6 5 1 1
BITMAP
24
48
90
48
24
ENDCHAR
STARTCHAR 00AC
ENCODING 172
SWIDTH 640 0
DWIDTH 8 0
BBX 6 3 1 2
BITMAP
FC
04
04
ENDCHAR
STARTCHAR 00AD
ENCODING 173
SWIDTH 640 0
DWIDTH 8 0
BBX 5 1 1 2
BITMAP
F8
ENDCHAR
STARTCHAR 00AE
ENCODING 174
SWIDTH 640 0
DWIDTH 8 0
BBX 6 7 1 2
BITMAP
70
88
B4
B4
B4
A8
70
ENDCHAR
STARTCHAR 00AF
ENCODING 175
SWIDTH 640 0
DWIDTH 8 0
BBX 4 1 2 7
BITMAP
F0
ENDCHAR
STARTCHAR 00B0
ENCODING 176
SWIDTH 640 0
DWIDTH 8 0
BBX 3 4 2 4
BITMAP
C0
A0
A0
C0
ENDCHAR
STARTCHAR 00B1
ENCODING 177
SWIDTH 640 0
DWIDTH 8 0
BBX 6 7 1 1
BITMAP
20
20
FC
20
20
00
FC
ENDCHAR
STARTCHAR 00B2
ENCODING 178
SWIDTH 640 0
DWIDTH 8 0
BBX 4 5 2 3
BITMAP
E0
90
20
50
F0
ENDCHAR
STARTCHAR 00B3
ENCODING 179
SWIDTH 640 0
DWIDTH 8 0
BBX 4 5 2 3
BITMAP
E0
90
60
10
E0
ENDCHAR
STARTCHAR 00B4
ENCODING 180
SWIDTH 640 0
DWIDTH 8 0
BBX 3 3 3 7
BITMAP
20
60
80
ENDCHAR
STARTCHAR 00B5
ENCODING 181
SWIDTH 640 0
DWIDTH 8 0
BBX 5 9 1 -3
BITMAP
88
88
88
88
88
F8
80
80
80
ENDCHAR
STARTCHAR 00B6
ENCODING 182
SWIDTH 640 0
DWIDTH 8 0
BBX 6 10 1 -2
BITMAP
7C
E8
E8
E8
28
28
28
28
28
28
ENDCHAR
STARTCHAR 00B7
ENCODING 183
SWIDTH 640 0
DWIDTH 8 0
BBX 2 2 3 3
BITMAP
C0
C0
ENDCHAR
STARTCHAR 00B8
ENCODING 184
SWIDTH 640 0
DWIDTH 8 0
BBX 4 3 2 -3
BITMAP
60
10
E0
ENDCHAR
STARTCHAR 00B9
ENCODING 185
SWIDTH 640 0
DWIDTH 8 0
BBX 4 5 2 3
BITMAP
40
A0
20
20
F0
ENDCHAR
STARTCHAR 00BA
ENCODING 186
SWIDTH 640 0
DWIDTH 8 0
BBX 5 5 1 3
BITMAP
30
48
88
48
70
ENDCHAR
STARTCHAR 00BB
ENCODING 187
SWIDTH 640 0
DWIDTH 8 0
BBX 6 5 1 1
BITMAP
90
48
24
48
90
ENDCHAR
STARTCHAR 00BC
ENCODING 188
SWIDTH 640 0
DWIDTH 8 0
BBX 8 10 0 -1
BITMAP
C0
40
40
E2
0C
32
46
0A
0F
02
ENDCHAR
STARTCHAR 00BD
ENCODING 189
SWIDTH 640 0
DWIDTH 8 0
BBX 8 11 0 -2
BITMAP
40
C0
40
40
E6
08
36
49
02
05
0F
ENDCHAR
STARTCHAR 00BE
ENCODING 190
SWIDTH 640 0
DWIDTH 8 0
BBX 8 10 0 -1
BITMAP
E0
A0
60
10
E6
1A
66
0A
0F
02
ENDCHAR
STARTCHAR 00BF
ENCODING 191
SWIDTH 640 0
DWIDTH 8 0
BBX 4 8 2 -2
BITMAP
60
00
20
20
C0
80
90
F0
ENDCHAR
STARTCHAR 00C0
ENCODING 192
SWIDTH 640 0
DWIDTH 8 0
BBX 8 12 0 0
BITMAP
20
30
08
00
78
18
38
24
24
7C
42
E7
ENDCHAR
STARTCHAR 00C1
ENCODING 193
SWIDTH 640 0
DWIDTH 8 0
BBX 8 12 0 0
BITMAP
08
18
30
00
78
18
38
24
24
7C
42
E7
ENDCHAR
STARTCHAR 00C2
ENCODING 194
SWIDTH 640 0
DWIDTH 8 0
BBX 8 12 0 0
BITMAP
10
18
24
00
78
18
38
24
24
7C
42
E7
ENDCHAR
STARTCHAR 00C3
ENCODING 195
SWIDTH 640 0
DWIDTH 8 0
BBX 8 10 0 0
BITMAP
7C
00
78
18
38
24
24
7C
42
E7
ENDCHAR
STARTCHAR 00C4
ENCODING 196
SWIDTH 640 0
DWIDTH 8 0
BBX 8 11 0 0
BITMAP
24
2C
00
78
18
38
24
24
7C
42
E7
ENDCHAR
STARTCHAR 00C5
ENCODING 197
SWIDTH 640 0
DWIDTH 8 0
BBX 8 12 0 0
BITMAP
38
28
38
00
78
18
38
24
24
7C
42
E7
ENDCHAR
STARTCHAR 00C6
ENCODING 198
SWIDTH 640 0
DWIDTH 8 0
BBX 7 8 0 0
BITMAP
7E
2A
2A
28
6C
78
4A
EE
ENDCHAR
STARTCHAR 00C7
ENCODING 199
SWIDTH 640 0
DWIDTH 8 0
BBX 6 11 1 -3
BITMAP
7C
C4
84
80
80
80
C4
38
10
08
70
ENDCHAR
STARTCHAR 00C8
ENCODING 200
SWIDTH 640 0
DWIDTH 8 0
BBX 6 12 1 0
BITMAP
40
60
10
00
FC
44
44
50
70
50
44
FC
ENDCHAR
STARTCHAR 00C9
ENCODING 201
SWIDTH 640 0
DWIDTH 8 0
BBX 6 12 1 0
BITMAP
10
18
60
00
FC
44
44
50
70
50
44
FC
ENDCHAR
STARTCHAR 00CA
ENCODING 202
SWIDTH 640 0
DWIDTH 8 0
BBX 6 12 1 0
BITMAP
10
30
48
00
FC
44
44
50
70
50
44
FC
ENDCHAR
STARTCHAR 00CB
ENCODING 203
SWIDTH 640 0
DWIDTH 8 0
BBX 6 11 1 0
BITMAP
48
48
00
FC
44
44
50
70
50
44
FC
ENDCHAR
STARTCHAR 00CC
ENCODING 204
SWIDTH 640 0
DWIDTH 8 0
BBX 6 12 1 0
BITMAP
40
60
10
00
F8
20
20
20
20
20
20
FC
ENDCHAR
STARTCHAR 00CD
ENCODING 205
SWIDTH 640 0
DWIDTH 8 0
BBX 6 12 1 0
BITMAP
08
18
20
00
F8
20
20
20
20
20
20
FC
ENDCHAR
STARTCHAR 00CE
ENCODING 206
SWIDTH 640 0
DWIDTH 8 0
BBX 6 12 1 0
BITMAP
20
30
48
00
F8
20
20
20
20
20
20
FC
ENDCHAR
STARTCHAR 00CF
ENCODING 207
SWIDTH 640 0
DWIDTH 8 0
BBX 6 11 1 0
BITMAP
48
48
00
F8
20
20
20
20
20
20
FC
ENDCHAR
STARTCHAR 00D0
ENCODING 208
SWIDTH 640 0
DWIDTH 8 0
BBX 7 8 0 0
BITMAP
7C
26
22
22
F2
22
26
7C
ENDCHAR
STARTCHAR 00D1
ENCODING 209
SWIDTH 640 0
DWIDTH 8 0
BBX 7 10 0 0
BITMAP
3C
00
EE
62
52
52
4A
4A
46
72
ENDCHAR
STARTCHAR 00D2
ENCODING 210
SWIDTH 640 0
DWIDTH 8 0
BBX 6 12 1 0
BITMAP
40
60
10
00
78
8C
84
84
84
84
8C
78
ENDCHAR
STARTCHAR 00D3
ENCODING 211
SWIDTH 640 0
DWIDTH 8 0
BBX 6 12 1 0
BITMAP
08
18
60
00
78
8C
84
84
84
84
8C
78
ENDCHAR
STARTCHAR 00D4
ENCODING 212
SWIDTH 640 0
DWIDTH 8 0
BBX 6 12 1 0
BITMAP
20
30
48
00
78
8C
84
84
84
84
8C
78
ENDCHAR
STARTCHAR 00D5
ENCODING 213
SWIDTH 640 0
DWIDTH 8 0
BBX 6 10 1 0
BITMAP
78
00
78
8C
84
84
84
84
8C
78
ENDCHAR
STARTCHAR 00D6
ENCODING 214
SWIDTH 640 0
DWIDTH 8 0
BBX 6 11 1 0
BITMAP
48
48
00
78
8C
84
84
84
84
8C
78
ENDCHAR
STARTCHAR 00D7
ENCODING 215
SWIDTH 640 0
DWIDTH 8 0
BBX 5 5 1 1
BITMAP
C8
70
30
70
C8
ENDCHAR
STARTCHAR 00D8
ENCODING 216
SWIDTH 640 0
DWIDTH 8 0
BBX 6 8 1 0
BITMAP
7C
8C
94
94
A4
C4
CC
F8
ENDCHAR
STARTCHAR 00D9
ENCODING 217
SWIDTH 640 0
DWIDTH 8 0
BBX 7 12 0 0
BITMAP
20
30
08
00
EE
42
42
42
42
42
64
3C
ENDCHAR
STARTCHAR 00DA
ENCODING 218
SWIDTH 640 0
DWIDTH 8 0
BBX 7 12 0 0
BITMAP
04
0C
10
00
EE
42
42
42
42
42
64
3C
ENDCHAR
STARTCHAR 00DB
ENCODING 219
SWIDTH 640 0
DWIDTH 8 0
BBX 7 12 0 0
BITMAP
10
18
24
00
EE
42
42
42
42
42
64
3C
ENDCHAR
STARTCHAR 00DC
ENCODING 220
SWIDTH 640 0
DWIDTH 8 0
BBX 7 11 0 0
BITMAP
24
24
00
EE
42
42
42
42
42
64
3C
ENDCHAR
STARTCHAR 00DD
ENCODING 221
SWIDTH 640 0
DWIDTH 8 0
BBX 7 12 0 0
BITMAP
04
0C
10
00
E6
24
24
18
10
10
10
3C
ENDCHAR
STARTCHAR 00DE
ENCODING 222
SWIDTH 640 0
DWIDTH 8 0
BBX 6 8 1 0
BITMAP
F0
40
78
44
44
78
40
F0
ENDCHAR
STARTCHAR 00DF
ENCODING 223
SWIDTH 640 0
DWIDTH 8 0
BBX 7 8 0 0
BITMAP
3C
24
24
2C
24
22
26
EC
ENDCHAR
STARTCHAR 00E0
ENCODING 224
SWIDTH 640 0
DWIDTH 8 0
BBX 6 10 1 0
BITMAP
40
20
18
00
F8
08
78
88
88
F4
ENDCHAR
STARTCHAR 00E1
ENCODING 225
SWIDTH 640 0
DWIDTH 8 0
BBX 6 10 1 0
BITMAP
10
30
60
00
F8
08
78
88
88
F4
ENDCHAR
STARTCHAR 00E2
ENCODING 226
SWIDTH 640 0
DWIDTH 8 0
BBX 6 10 1 0
BITMAP
20
30
48
00
F8
08
78
88
88
F4
ENDCHAR
STARTCHAR 00E3
ENCODING 227
SWIDTH 640 0
DWIDTH 8 0
BBX 6 8 1 0
BITMAP
78
00
F8
08
78
88
88
F4
ENDCHAR
STARTCHAR 00E4
ENCODING 228
SWIDTH 640 0
DWIDTH 8 0
BBX 6 9 1 0
BITMAP
48
48
00
F8
08
78
88
88
F4
ENDCHAR
STARTCHAR 00E5
ENCODING 229
SWIDTH 640 0
DWIDTH 8 0
BBX 6 10 1 0
BITMAP
30
48
30
00
F8
08
78
88
88
F4
ENDCHAR
STARTCHAR 00E6
ENCODING 230
SWIDTH 640 0
DWIDTH 8 0
BBX 7 6 0 0
BITMAP
7E
1A
7E
50
9A
6E
ENDCHAR
STARTCHAR 00E7
ENCODING 231
SWIDTH 640 0
DWIDTH 8 0
BBX 6 9 1 -3
BITMAP
74
8C
84
80
84
78
30
08
70
ENDCHAR
STARTCHAR 00E8
ENCODING 232
SWIDTH 640 0
DWIDTH 8 0
BBX 6 10 1 0
BITMAP
40
20
18
00
78
84
FC
80
84
78
ENDCHAR
STARTCHAR 00E9
ENCODING 233
SWIDTH 640 0
DWIDTH 8 0
BBX 6 10 1 0
BITMAP
08
18
60
00
78
84
FC
80
84
78
ENDCHAR
STARTCHAR 00EA
ENCODING 234
SWIDTH 640 0
DWIDTH 8 0
BBX 6 10 1 0
BITMAP
10
30
48
00
78
84
FC
80
84
78
ENDCHAR
STARTCHAR 00EB
ENCODING 235
SWIDTH 640 0
DWIDTH 8 0
BBX 6 9 1 0
BITMAP
48
48
00
78
84
FC
80
84
78
ENDCHAR
STARTCHAR 00EC
ENCODING 236
SWIDTH 640 0
DWIDTH 8 0
BBX 6 10 1 0
BITMAP
40
60
10
00
70
10
10
10
10
FC
ENDCHAR
STARTCHAR 00ED
ENCODING 237
SWIDTH 640 0
DWIDTH 8 0
BBX 6 10 1 0
BITMAP
10
30
60
00
70
10
10
10
10
FC
ENDCHAR
STARTCHAR 00EE
ENCODING 238
SWIDTH 640 0
DWIDTH 8 0
BBX 6 10 1 0
BITMAP
20
30
48
00
70
10
10
10
10
FC
ENDCHAR
STARTCHAR 00EF
ENCODING 239
SWIDTH 640 0
DWIDTH 8 0
BBX 6 9 1 0
BITMAP
48
48
00
70
10
10
10
10
FC
ENDCHAR
STARTCHAR 00F0
ENCODING 240
SWIDTH 640 0
DWIDTH 8 0
BBX 6 8 1 0
BITMAP
78
58
78
8C
84
84
8C
78
ENDCHAR
STARTCHAR 00F1
ENCODING 241
SWIDTH 640 0
DWIDTH 8 0
BBX 7 8 0 0
BITMAP
3C
00
DC
24
22
22
22
66
ENDCHAR
STARTCHAR 00F2
ENCODING 242
SWIDTH 640 0
DWIDTH 8 0
BBX 6 10 1 0
BITMAP
40
60
10
00
78
8C
84
84
8C
78
ENDCHAR
STARTCHAR 00F3
ENCODING 243
SWIDTH 640 0
DWIDTH 8 0
BBX 6 10 1 0
BITMAP
08
18
60
00
78
8C
84
84
8C
78
ENDCHAR
STARTCHAR 00F4
ENCODING 244
SWIDTH 640 0
DWIDTH 8 0
BBX 6 10 1 0
BITMAP
20
30
48
00
78
8C
84
84
8C
78
ENDCHAR
STARTCHAR 00F5
ENCODING 245
SWIDTH 640 0
DWIDTH 8 0
BBX 6 8 1 0
BITMAP
78
00
78
8C
84
84
8C
78
ENDCHAR
STARTCHAR 00F6
ENCODING 246
SWIDTH 640 0
DWIDTH 8 0
BBX 6 9 1 0
BITMAP
48
48
00
78
8C
84
84
8C
78
ENDCHAR
STARTCHAR 00F7
ENCODING 247
SWIDTH 640 0
DWIDTH 8 0
BBX 6 6 1 1
BITMAP
30
00
FC
00
00
30
ENDCHAR
STARTCHAR 00F8
ENCODING 248
SWIDTH 640 0
DWIDTH 8 0
BBX 6 6 1 0
BITMAP
7C
8C
94
A4
CC
F8
ENDCHAR
STARTCHAR 00F9
ENCODING 249
SWIDTH 640 0
DWIDTH 8 0
BBX 7 10 0 0
BITMAP
20
30
08
00
CC
44
44
44
44
3E
ENDCHAR
STARTCHAR 00FA
ENCODING 250
SWIDTH 640 0
DWIDTH 8 0
BBX 7 10 0 0
BITMAP
04
0C
10
00
CC
44
44
44
44
3E
ENDCHAR
STARTCHAR 00FB
ENCODING 251
SWIDTH 640 0
DWIDTH 8 0
BBX 7 10 0 0
BITMAP
10
18
24
00
CC
44
44
44
44
3E
ENDCHAR
STARTCHAR 00FC
ENCODING 252
SWIDTH 640 0
DWIDTH 8 0
BBX 7 9 0 0
BITMAP
24
2C
00
CC
44
44
44
44
3E
ENDCHAR
STARTCHAR 00FD
ENCODING 253
SWIDTH 640 0
DWIDTH 8 0
BBX 7 12 0 -2
BITMAP
04
0C
10
00
E6
44
24
18
18
10
10
60
ENDCHAR
STARTCHAR 00FE
ENCODING 254
SWIDTH 640 0
DWIDTH 8 0
BBX 7 10 0 -2
BITMAP
C0
40
5C
62
42
42
62
5C
40
F0
ENDCHAR
STARTCHAR 00FF
ENCODING 255
SWIDTH 640 0
DWIDTH 8 0
BBX 7 11 0 -2
BITMAP
24
24
00
E6
44
24
18
18
10
10
60
ENDCHAR
STARTCHAR 0100
ENCODING 256
SWIDTH 640 0
DWIDTH 8 0
BBX 8 10 0 0
BITMAP
3C
00
78
18
38
24
24
7C
42
E7
ENDCHAR
STARTCHAR 0101
ENCODING 257
SWIDTH 640 0
DWIDTH 8 0
BBX 6 8 1 0
BITMAP
78
00
F8
08
78
88
88
F4
ENDCHAR
STARTCHAR 0102
ENCODING 258
SWIDTH 640 0
DWIDTH 8 0
BBX 8 11 0 0
BITMAP
24
38
00
78
18
38
24
24
7C
42
E7
ENDCHAR
STARTCHAR 0103
ENCODING 259
SWIDTH 640 0
DWIDTH 8 0
BBX 6 9 1 0
BITMAP
48
70
00
F8
08
78
88
88
F4
ENDCHAR
STARTCHAR 0104
ENCODING 260
SWIDTH 640 0
DWIDTH 8 0
BBX 8 11 0 -3
BITMAP
78
18
28
24
24
7C
42
E7
04
04
06
ENDCHAR
STARTCHAR 0105
ENCODING 261
SWIDTH 640 0
DWIDTH 8 0
BBX 6 9 1 -3
BITMAP
F8
08
78
88
88
F4
08
08
0C
ENDCHAR
STARTCHAR 0106
ENCODING 262
SWIDTH 640 0
DWIDTH 8 0
BBX 6 12 1 0
BITMAP
08
18
20
00
7C
C4
84
80
80
80
C4
78
ENDCHAR
STARTCHAR 0107
ENCODING 263
SWIDTH 640 0
DWIDTH 8 0
BBX 6 10 1 0
BITMAP
08
18
20
00
74
8C
84
80
84
78
ENDCHAR
STARTCHAR 0108
ENCODING 264
SWIDTH 640 0
DWIDTH 8 0
BBX 6 12 1 0
BITMAP
10
30
48
00
7C
C4
84
80
80
80
C4
78
ENDCHAR
STARTCHAR 0109
ENCODING 265
SWIDTH 640 0
DWIDTH 8 0
BBX 6 10 1 0
BITMAP
20
30
48
00
74
8C
84
80
84
78
ENDCHAR
STARTCHAR 010A
ENCODING 266
SWIDTH 640 0
DWIDTH 8 0
BBX 6 11 1 0
BITMAP
30
30
00
7C
C4
84
80
80
80
C4
78
ENDCHAR
STARTCHAR 010B
ENCODING 267
SWIDTH 640 0
DWIDTH 8 0
BBX 6 9 1 0
BITMAP
30
30
00
74
8C
84
80
84
78
ENDCHAR
STARTCHAR 010C
ENCODING 268
SWIDTH 640 0
DWIDTH 8 0
BBX 6 12 1 0
BITMAP
48
78
30
00
7C
C4
84
80
80
80
C4
78
ENDCHAR
STARTCHAR 010D
ENCODING 269
SWIDTH 640 0
DWIDTH 8 0
BBX 6 10 1 0
BITMAP
48
78
30
00
74
8C
84
80
84
78
ENDCHAR
STARTCHAR 010E
ENCODING 270
SWIDTH 640 0
DWIDTH 8 0
BBX 6 12 1 0
BITMAP
48
50
20
00
F8
4C
44
44
44
44
4C
F8
ENDCHAR
STARTCHAR 010F
ENCODING 271
SWIDTH 640 0
DWIDTH 8 0
BBX 7 8 1 0
BITMAP
3A
0A
6A
98
88
88
88
7C
ENDCHAR
STARTCHAR 0110
ENCODING 272
SWIDTH 640 0
DWIDTH 8 0
BBX 6 8 1 0
BITMAP
F8
4C
44
44
F4
44
4C
F8
ENDCHAR
STARTCHAR 0111
ENCODING 273
SWIDTH 640 0
DWIDTH 8 0
BBX 6 8 1 0
BITMAP
18
3C
78
88
88
88
88
7C
ENDCHAR
STARTCHAR 0112
ENCODING 274
SWIDTH 640 0
DWIDTH 8 0
BBX 6 10 1 0
BITMAP
78
00
FC
44
44
50
70
50
44
FC
ENDCHAR
STARTCHAR 0113
ENCODING 275
SWIDTH 640 0
DWIDTH 8 0
BBX 6 8 1 0
BITMAP
78
00
78
84
FC
80
84
78
ENDCHAR
STARTCHAR 0114
ENCODING 276
SWIDTH 640 0
DWIDTH 8 0
BBX 6 11 1 0
BITMAP
48
70
00
FC
44
44
50
70
50
44
FC
ENDCHAR
STARTCHAR 0115
ENCODING 277
SWIDTH 640 0
DWIDTH 8 0
BBX 6 9 1 0
BITMAP
48
30
00
78
84
FC
80
84
78
ENDCHAR
STARTCHAR 0116
ENCODING 278
SWIDTH 640 0
DWIDTH 8 0
BBX 6 11 1 0
BITMAP
20
30
00
FC
44
44
50
70
50
44
FC
ENDCHAR
STARTCHAR 0117
ENCODING 279
SWIDTH 640 0
DWIDTH 8 0
BBX 6 9 1 0
BITMAP
30
30
00
78
84
FC
80
84
78
ENDCHAR
STARTCHAR 0118
ENCODING 280
SWIDTH 640 0
DWIDTH 8 0
BBX 6 11 1 -3
BITMAP
FC
44
44
50
70
54
44
FC
08
10
0C
ENDCHAR
STARTCHAR 0119
ENCODING 281
SWIDTH 640 0
DWIDTH 8 0
BBX 6 9 1 -3
BITMAP
78
84
FC
80
84
78
10
10
18
ENDCHAR
STARTCHAR 011A
ENCODING 282
SWIDTH 640 0
DWIDTH 8 0
BBX 6 12 1 0
BITMAP
48
78
30
00
FC
44
44
50
70
50
44
FC
ENDCHAR
STARTCHAR 011B
ENCODING 283
SWIDTH 640 0
DWIDTH 8 0
BBX 6 10 1 0
BITMAP
48
78
30
00
78
84
FC
80
84
78
ENDCHAR
STARTCHAR 011C
ENCODING 284
SWIDTH 640 0
DWIDTH 8 0
BBX 6 12 1 0
BITMAP
10
30
48
00
7C
CC
84
80
9C
84
C4
78
ENDCHAR
STARTCHAR 011D
ENCODING 285
SWIDTH 640 0
DWIDTH 8 0
BBX 6 12 1 -2
BITMAP
20
30
48
00
74
8C
84
84
8C
74
08
F8
ENDCHAR
STARTCHAR 011E
ENCODING 286
SWIDTH 640 0
DWIDTH 8 0
BBX 6 11 1 0
BITMAP
48
70
00
7C
CC
84
80
9C
84
C4
78
ENDCHAR
STARTCHAR 011F
ENCODING 287
SWIDTH 640 0
DWIDTH 8 0
BBX 6 11 1 -2
BITMAP
48
70
00
74
8C
84
84
8C
74
08
F8
ENDCHAR
STARTCHAR 0120
ENCODING 288
SWIDTH 640 0
DWIDTH 8 0
BBX 6 11 1 0
BITMAP
30
30
00
7C
CC
84
80
9C
84
C4
78
ENDCHAR
STARTCHAR 0121
ENCODING 289
SWIDTH 640 0
DWIDTH 8 0
BBX 6 11 1 -2
BITMAP
20
30
00
74
8C
84
84
8C
74
08
F8
ENDCHAR
STARTCHAR 0122
ENCODING 290
SWIDTH 640 0
DWIDTH 8 0
BBX 6 11 1 -3
BITMAP
7C
CC
84
80
9C
84
C4
78
00
30
20
ENDCHAR
STARTCHAR 0123
ENCODING 291
SWIDTH 640 0
DWIDTH 8 0
BBX 6 12 1 -2
BITMAP
10
30
00
00
74
8C
84
84
8C
74
08
F8
ENDCHAR
STARTCHAR 0124
ENCODING 292
SWIDTH 640 0
DWIDTH 8 0
BBX 6 12 1 0
BITMAP
20
30
48
00
DC
88
88
88
F8
88
88
DC
ENDCHAR
STARTCHAR 0125
ENCODING 293
SWIDTH 640 0
DWIDTH 8 0
BBX 7 12 0 0
BITMAP
10
18
24
00
C0
40
5C
64
64
44
44
6E
ENDCHAR
STARTCHAR 0126
ENCODING 294
SWIDTH 640 0
DWIDTH 8 0
BBX 8 8 0 0
BITMAP
6E
44
FF
44
7C
44
44
6E
ENDCHAR
STARTCHAR 0127
ENCODING 295
SWIDTH 640 0
DWIDTH 8 0
BBX 7 8 0 0
BITMAP
C0
F0
5C
64
64
44
44
6E
ENDCHAR
STARTCHAR 0128
ENCODING 296
SWIDTH 640 0
DWIDTH 8 0
BBX 6 10 1 0
BITMAP
78
00
F8
20
20
20
20
20
20
FC
ENDCHAR
STARTCHAR 0129
ENCODING 297
SWIDTH 640 0
DWIDTH 8 0
BBX 6 8 1 0
BITMAP
78
00
70
10
10
10
10
FC
ENDCHAR
STARTCHAR 012A
ENCODING 298
SWIDTH 640 0
DWIDTH 8 0
BBX 6 10 1 0
BITMAP
78
00
F8
20
20
20
20
20
20
FC
ENDCHAR
STARTCHAR 012B
ENCODING 299
SWIDTH 640 0
DWIDTH 8 0
BBX 6 8 1 0
BITMAP
78
00
70
10
10
10
10
FC
ENDCHAR
STARTCHAR 012C
ENCODING 300
SWIDTH 640 0
DWIDTH 8 0
BBX 6 11 1 0
BITMAP
48
70
00
F8
20
20
20
20
20
20
FC
ENDCHAR
STARTCHAR 012D
ENCODING 301
SWIDTH 640 0
DWIDTH 8 0
BBX 6 9 1 0
BITMAP
48
70
00
70
10
10
10
10
FC
ENDCHAR
STARTCHAR 012E
ENCODING 302
SWIDTH 640 0
DWIDTH 8 0
BBX 6 11 1 -3
BITMAP
F8
20
20
20
20
20
20
FC
20
40
30
ENDCHAR
STARTCHAR 012F
ENCODING 303
SWIDTH 640 0
DWIDTH 8 0
BBX 6 11 1 -3
BITMAP
30
30
70
10
10
10
10
FC
20
40
30
ENDCHAR
STARTCHAR 0130
ENCODING 304
SWIDTH 640 0
DWIDTH 8 0
BBX 6 11 1 0
BITMAP
20
30
00
F8
20
20
20
20
20
20
FC
ENDCHAR
STARTCHAR 0131
ENCODING 305
SWIDTH 640 0
DWIDTH 8 0
BBX 6 6 1 0
BITMAP
70
10
10
10
10
FC
ENDCHAR
STARTCHAR 0132
ENCODING 306
SWIDTH 640 0
DWIDTH 8 0
BBX 8 8 0 0
BITMAP
E7
42
42
42
42
52
52
EC
ENDCHAR
STARTCHAR 0133
ENCODING 307
SWIDTH 640 0
DWIDTH 8 0
BBX 7 10 0 -2
BITMAP
22
22
6E
22
22
22
22
F2
02
1C
ENDCHAR
STARTCHAR 0134
ENCODING 308
SWIDTH 640 0
DWIDTH 8 0
BBX 6 12 1 0
BITMAP
10
18
24
00
7C
08
08
08
88
88
98
F0
ENDCHAR
STARTCHAR 0135
ENCODING 309
SWIDTH 640 0
DWIDTH 8 0
BBX 6 12 1 -2
BITMAP
10
38
24
00
78
08
08
08
08
08
88
70
ENDCHAR
STARTCHAR 0136
ENCODING 310
SWIDTH 640 0
DWIDTH 8 0
BBX 7 11 1 -3
BITMAP
FC
48
50
60
70
48
48
E6
00
30
20
ENDCHAR
STARTCHAR 0137
ENCODING 311
SWIDTH 640 0
DWIDTH 8 0
BBX 7 11 0 -3
BITMAP
E0
20
2E
2C
38
28
24
6E
00
10
10
ENDCHAR
STARTCHAR 0139
ENCODING 313
SWIDTH 640 0
DWIDTH 8 0
BBX 6 12 1 0
BITMAP
20
70
C0
00
F0
40
40
40
44
44
44
FC
ENDCHAR
STARTCHAR 013A
ENCODING 314
SWIDTH 640 0
DWIDTH 8 0
BBX 6 12 1 0
BITMAP
10
18
60
00
E0
20
20
20
20
20
20
FC
ENDCHAR
STARTCHAR 013B
ENCODING 315
SWIDTH 640 0
DWIDTH 8 0
BBX 6 11 1 -3
BITMAP
F0
40
40
40
44
44
44
FC
00
30
20
ENDCHAR
STARTCHAR 013C
ENCODING 316
SWIDTH 640 0
DWIDTH 8 0
BBX 6 11 1 -3
BITMAP
E0
20
20
20
20
20
20
FC
00
30
20
ENDCHAR
STARTCHAR 013D
ENCODING 317
SWIDTH 640 0
DWIDTH 8 0
BBX 6 8 1 0
BITMAP
F0
44
44
48
44
44
44
FC
ENDCHAR
STARTCHAR 013E
ENCODING 318
SWIDTH 640 0
DWIDTH 8 0
BBX 6 8 1 0
BITMAP
E4
24
28
20
20
20
20
FC
ENDCHAR
STARTCHAR 013F
ENCODING 319
SWIDTH 640 0
DWIDTH 8 0
BBX 6 8 1 0
BITMAP
F0
40
40
58
50
44
44
FC
ENDCHAR
STARTCHAR 0140
ENCODING 320
SWIDTH 640 0
DWIDTH 8 0
BBX 6 8 1 0
BITMAP
E0
20
24
24
20
20
20
FC
ENDCHAR
STARTCHAR 0141
ENCODING 321
SWIDTH 640 0
DWIDTH 8 0
BBX 7 8 0 0
BITMAP
78
20
28
30
62
A2
22
7E
ENDCHAR
STARTCHAR 0142
ENCODING 322
SWIDTH 640 0
DWIDTH 8 0
BBX 6 8 1 0
BITMAP
E0
20
28
30
60
20
20
FC
ENDCHAR
STARTCHAR 0143
ENCODING 323
SWIDTH 640 0
DWIDTH 8 0
BBX 7 12 0 0
BITMAP
04
0C
10
00
EE
62
52
52
4A
4A
46
72
ENDCHAR
STARTCHAR 0144
ENCODING 324
SWIDTH 640 0
DWIDTH 8 0
BBX 7 10 0 0
BITMAP
04
0C
10
00
DC
24
22
22
22
66
ENDCHAR
STARTCHAR 0145
ENCODING 325
SWIDTH 640 0
DWIDTH 8 0
BBX 7 11 0 -3
BITMAP
EE
62
52
52
4A
4A
46
72
00
18
10
ENDCHAR
STARTCHAR 0146
ENCODING 326
SWIDTH 640 0
DWIDTH 8 0
BBX 7 9 0 -3
BITMAP
DC
24
22
22
22
66
00
18
10
ENDCHAR
STARTCHAR 0147
ENCODING 327
SWIDTH 640 0
DWIDTH 8 0
BBX 7 12 0 0
BITMAP
24
3C
18
00
EE
62
52
52
4A
4A
46
72
ENDCHAR
STARTCHAR 0148
ENCODING 328
SWIDTH 640 0
DWIDTH 8 0
BBX 7 10 0 0
BITMAP
24
3C
18
00
DC
24
22
22
22
66
ENDCHAR
STARTCHAR 014A
ENCODING 330
SWIDTH 640 0
DWIDTH 8 0
BBX 7 10 0 -2
BITMAP
EE
62
52
52
4A
4A
46
76
02
1C
ENDCHAR
STARTCHAR 014B
ENCODING 331
SWIDTH 640 0
DWIDTH 8 0
BBX 6 8 1 -2
BITMAP
F8
44
44
44
44
E4
04
38
ENDCHAR
STARTCHAR 014C
ENCODING 332
SWIDTH 640 0
DWIDTH 8 0
BBX 6 10 1 0
BITMAP
78
00
78
8C
84
84
84
84
8C
78
ENDCHAR
STARTCHAR 014D
ENCODING 333
SWIDTH 640 0
DWIDTH 8 0
BBX 6 8 1 0
BITMAP
78
00
78
8C
84
84
8C
78
ENDCHAR
STARTCHAR 014E
ENCODING 334
SWIDTH 640 0
DWIDTH 8 0
BBX 6 11 1 0
BITMAP
48
70
00
78
8C
84
84
84
84
8C
78
ENDCHAR
STARTCHAR 014F
ENCODING 335
SWIDTH 640 0
DWIDTH 8 0
BBX 6 9 1 0
BITMAP
48
70
00
78
8C
84
84
8C
78
ENDCHAR
STARTCHAR 0150
ENCODING 336
SWIDTH 640 0
DWIDTH 8 0
BBX 6 12 1 0
BITMAP
24
3C
58
00
78
8C
84
84
84
84
8C
78
ENDCHAR
STARTCHAR 0151
ENCODING 337
SWIDTH 640 0
DWIDTH 8 0
BBX 6 10 1 0
BITMAP
24
3C
58
00
78
8C
84
84
8C
78
ENDCHAR
STARTCHAR 0152
ENCODING 338
SWIDTH 640 0
DWIDTH 8 0
BBX 7 8 0 0
BITMAP
3E
4A
4A
88
8C
48
4A
3E
ENDCHAR
STARTCHAR 0153
ENCODING 339
SWIDTH 640 0
DWIDTH 8 0
BBX 7 6 0 0
BITMAP
7E
5A
9E
90
5A
7E
ENDCHAR
STARTCHAR 0154
ENCODING 340
SWIDTH 640 0
DWIDTH 8 0
BBX 7 12 1 0
BITMAP
08
18
60
00
F8
48
44
48
70
48
48
E6
ENDCHAR
STARTCHAR 0155
ENCODING 341
SWIDTH 640 0
DWIDTH 8 0
BBX 6 10 1 0
BITMAP
08
18
20
00
DC
60
60
40
40
F8
ENDCHAR
STARTCHAR 0156
ENCODING 342
SWIDTH 640 0
DWIDTH 8 0
BBX 7 11 1 -3
BITMAP
F8
48
44
48
70
48
48
E6
00
30
20
ENDCHAR
STARTCHAR 0157
ENCODING 343
SWIDTH 640 0
DWIDTH 8 0
BBX 6 9 1 -3
BITMAP
DC
60
60
40
40
F8
00
20
40
ENDCHAR
STARTCHAR 0158
ENCODING 344
SWIDTH 640 0
DWIDTH 8 0
BBX 7 12 1 0
BITMAP
48
50
20
00
F8
48
44
48
70
48
48
E6
ENDCHAR
STARTCHAR 0159
ENCODING 345
SWIDTH 640 0
DWIDTH 8 0
BBX 6 10 1 0
BITMAP
48
78
30
00
DC
60
60
40
40
F8
ENDCHAR
STARTCHAR 015A
ENCODING 346
SWIDTH 640 0
DWIDTH 8 0
BBX 6 12 1 0
BITMAP
08
18
60
00
78
88
80
70
08
84
C4
F8
ENDCHAR
STARTCHAR 015B
ENCODING 347
SWIDTH 640 0
DWIDTH 8 0
BBX 6 10 1 0
BITMAP
08
18
60
00
78
88
F0
0C
84
F8
ENDCHAR
STARTCHAR 015C
ENCODING 348
SWIDTH 640 0
DWIDTH 8 0
BBX 6 12 1 0
BITMAP
20
30
48
00
78
88
80
70
08
84
C4
F8
ENDCHAR
STARTCHAR 015D
ENCODING 349
SWIDTH 640 0
DWIDTH 8 0
BBX 6 10 1 0
BITMAP
20
30
48
00
78
88
F0
0C
84
F8
ENDCHAR
STARTCHAR 015E
ENCODING 350
SWIDTH 640 0
DWIDTH 8 0
BBX 6 11 1 -3
BITMAP
78
88
80
70
08
84
C4
F8
30
08
70
ENDCHAR
STARTCHAR 015F
ENCODING 351
SWIDTH 640 0
DWIDTH 8 0
BBX 6 9 1 -3
BITMAP
78
88
F0
0C
84
F8
30
08
70
ENDCHAR
STARTCHAR 0160
ENCODING 352
SWIDTH 640 0
DWIDTH 8 0
BBX 6 12 1 0
BITMAP
48
50
20
00
78
88
80
70
08
84
C4
F8
ENDCHAR
STARTCHAR 0161
ENCODING 353
SWIDTH 640 0
DWIDTH 8 0
BBX 6 10 1 0
BITMAP
48
78
30
00
78
88
F0
0C
84
F8
ENDCHAR
STARTCHAR 0162
ENCODING 354
SWIDTH 640 0
DWIDTH 8 0
BBX 6 11 1 -3
BITMAP
FC
A4
A4
20
20
20
20
78
20
18
70
ENDCHAR
STARTCHAR 0163
ENCODING 355
SWIDTH 640 0
DWIDTH 8 0
BBX 6 11 1 -3
BITMAP
40
40
F8
40
40
40
24
38
10
08
70
ENDCHAR
STARTCHAR 0164
ENCODING 356
SWIDTH 640 0
DWIDTH 8 0
BBX 6 12 1 0
BITMAP
48
78
30
00
FC
A4
A4
20
20
20
20
78
ENDCHAR
STARTCHAR 0165
ENCODING 357
SWIDTH 640 0
DWIDTH 8 0
BBX 6 9 1 0
BITMAP
08
48
40
F8
40
40
40
24
38
ENDCHAR
STARTCHAR 0166
ENCODING 358
SWIDTH 640 0
DWIDTH 8 0
BBX 6 8 1 0
BITMAP
FC
A4
A4
20
78
20
20
78
ENDCHAR
STARTCHAR 0167
ENCODING 359
SWIDTH 640 0
DWIDTH 8 0
BBX 6 8 1 0
BITMAP
40
40
F8
40
F8
40
24
38
ENDCHAR
STARTCHAR 0168
ENCODING 360
SWIDTH 640 0
DWIDTH 8 0
BBX 7 10 0 0
BITMAP
3C
00
EE
42
42
42
42
42
64
3C
ENDCHAR
STARTCHAR 0169
ENCODING 361
SWIDTH 640 0
DWIDTH 8 0
BBX 7 8 0 0
BITMAP
3C
00
CC
44
44
44
44
3E
ENDCHAR
STARTCHAR 016A
ENCODING 362
SWIDTH 640 0
DWIDTH 8 0
BBX 7 10 0 0
BITMAP
3C
00
EE
42
42
42
42
42
64
3C
ENDCHAR
STARTCHAR 016B
ENCODING 363
SWIDTH 640 0
DWIDTH 8 0
BBX 7 8 0 0
BITMAP
3C
00
CC
44
44
44
44
3E
ENDCHAR
STARTCHAR 016C
ENCODING 364
SWIDTH 640 0
DWIDTH 8 0
BBX 7 11 0 0
BITMAP
24
38
00
EE
42
42
42
42
42
64
3C
ENDCHAR
STARTCHAR 016D
ENCODING 365
SWIDTH 640 0
DWIDTH 8 0
BBX 7 9 0 0
BITMAP
24
38
00
CC
44
44
44
44
3E
ENDCHAR
STARTCHAR 016E
ENCODING 366
SWIDTH 640 0
DWIDTH 8 0
BBX 7 12 0 0
BITMAP
18
24
18
00
EE
42
42
42
42
42
64
3C
ENDCHAR
STARTCHAR 016F
ENCODING 367
SWIDTH 640 0
DWIDTH 8 0
BBX 7 10 0 0
BITMAP
18
28
18
00
CC
44
44
44
44
3E
ENDCHAR
STARTCHAR 0170
ENCODING 368
SWIDTH 640 0
DWIDTH 8 0
BBX 7 12 0 0
BITMAP
12
1E
2C
00
EE
42
42
42
42
42
64
3C
ENDCHAR
STARTCHAR 0171
ENCODING 369
SWIDTH 640 0
DWIDTH 8 0
BBX 7 10 0 0
BITMAP
12
14
28
00
CC
44
44
44
44
3E
ENDCHAR
STARTCHAR 0172
ENCODING 370
SWIDTH 640 0
DWIDTH 8 0
BBX 7 11 0 -3
BITMAP
EE
42
42
42
42
42
64
3C
08
10
1C
ENDCHAR
STARTCHAR 0173
ENCODING 371
SWIDTH 640 0
DWIDTH 8 0
BBX 7 9 0 -3
BITMAP
CC
44
44
44
44
3E
04
04
06
ENDCHAR
STARTCHAR 0174
ENCODING 372
SWIDTH 640 0
DWIDTH 8 0
BBX 8 12 0 0
BITMAP
10
18
24
00
E7
42
52
5A
5A
6A
64
64
ENDCHAR
STARTCHAR 0175
ENCODING 373
SWIDTH 640 0
DWIDTH 8 0
BBX 8 10 0 0
BITMAP
10
18
24
00
E7
52
5A
5A
6C
24
ENDCHAR
STARTCHAR 0176
ENCODING 374
SWIDTH 640 0
DWIDTH 8 0
BBX 7 12 0 0
BITMAP
10
18
24
00
E6
24
24
18
10
10
10
3C
ENDCHAR
STARTCHAR 0177
ENCODING 375
SWIDTH 640 0
DWIDTH 8 0
BBX 7 12 0 -2
BITMAP
10
18
24
00
E6
44
24
18
18
10
10
60
ENDCHAR
STARTCHAR 0178
ENCODING 376
SWIDTH 640 0
DWIDTH 8 0
BBX 7 11 0 0
BITMAP
24
24
00
E6
24
24
18
10
10
10
3C
ENDCHAR
STARTCHAR 0179
ENCODING 377
SWIDTH 640 0
DWIDTH 8 0
BBX 6 12 1 0
BITMAP
08
18
20
00
FC
88
90
10
20
44
44
FC
ENDCHAR
STARTCHAR 017A
ENCODING 378
SWIDTH 640 0
DWIDTH 8 0
BBX 6 10 1 0
BITMAP
08
18
20
00
FC
88
10
20
44
FC
ENDCHAR
STARTCHAR 017B
ENCODING 379
SWIDTH 640 0
DWIDTH 8 0
BBX 6 11 1 0
BITMAP
20
30
00
FC
88
90
10
20
44
44
FC
ENDCHAR
STARTCHAR 017C
ENCODING 380
SWIDTH 640 0
DWIDTH 8 0
BBX 6 9 1 0
BITMAP
30
30
00
FC
88
10
20
44
FC
ENDCHAR
STARTCHAR 017D
ENCODING 381
SWIDTH 640 0
DWIDTH 8 0
BBX 6 12 1 0
BITMAP
48
78
30
00
FC
88
90
10
20
44
44
FC
ENDCHAR
STARTCHAR 017E
ENCODING 382
SWIDTH 640 0
DWIDTH 8 0
BBX 6 10 1 0
BITMAP
48
78
30
00
FC
88
10
20
44
FC
ENDCHAR
STARTCHAR 0192
ENCODING 402
SWIDTH 640 0
DWIDTH 8 0
BBX 7 10 0 -2
BITMAP
0E
08
08
3C
10
10
10
10
10
E0
ENDCHAR
STARTCHAR 0218
ENCODING 536
SWIDTH 640 0
DWIDTH 8 0
BBX 6 11 1 -3
BITMAP
78
88
80
70
08
84
C4
F8
00
30
20
ENDCHAR
STARTCHAR 0219
ENCODING 537
SWIDTH 640 0
DWIDTH 8 0
BBX 6 9 1 -3
BITMAP
78
88
F0
0C
84
F8
00
30
20
ENDCHAR
STARTCHAR 021A
ENCODING 538
SWIDTH 640 0
DWIDTH 8 0
BBX 6 11 1 -3
BITMAP
FC
A4
A4
20
20
20
20
78
00
30
20
ENDCHAR
STARTCHAR 021B
ENCODING 539
SWIDTH 640 0
DWIDTH 8 0
BBX 6 11 1 -3
BITMAP
40
40
F8
40
40
40
24
38
00
10
20
ENDCHAR
STARTCHAR 0237
ENCODING 567
SWIDTH 640 0
DWIDTH 8 0
BBX 5 8 1 -2
BITMAP
78
08
08
08
08
08
88
70
ENDCHAR
STARTCHAR 02C6
ENCODING 710
SWIDTH 640 0
DWIDTH 8 0
BBX 4 3 2 7
BITMAP
40
60
90
ENDCHAR
STARTCHAR 02C7
ENCODING 711
SWIDTH 640 0
DWIDTH 8 0
BBX 4 3 2 7
BITMAP
90
F0
60
ENDCHAR
STARTCHAR 02D8
ENCODING 728
SWIDTH 640 0
DWIDTH 8 0
BBX 4 2 2 7
BITMAP
90
E0
ENDCHAR
STARTCHAR 02D9
ENCODING 729
SWIDTH 640 0
DWIDTH 8 0
BBX 2 2 3 7
BITMAP
80
C0
ENDCHAR
STARTCHAR 02DA
ENCODING 730
SWIDTH 640 0
DWIDTH 8 0
BBX 3 3 2 7
BITMAP
60
A0
60
ENDCHAR
STARTCHAR 02DB
ENCODING 731
SWIDTH 640 0
DWIDTH 8 0
BBX 2 3 3 -3
BITMAP
C0
80
C0
ENDCHAR
STARTCHAR 02DC
ENCODING 732
SWIDTH 640 0
DWIDTH 8 0
BBX 4 1 2 7
BITMAP
F0
ENDCHAR
STARTCHAR 02DD
ENCODING 733
SWIDTH 640 0
DWIDTH 8 0
BBX 5 3 2 7
BITMAP
48
78
B0
ENDCHAR
STARTCHAR 0326
ENCODING 806
SWIDTH 0 0
DWIDTH 0 0
BBX 2 2 -5 -3
BITMAP
C0
80
ENDCHAR
STARTCHAR 0394
ENCODING 916
SWIDTH 640 0
DWIDTH 8 0
BBX 6 8 1 0
BITMAP
30
30
30
48
48
48
84
FC
ENDCHAR
STARTCHAR 03A9
ENCODING 937
SWIDTH 640 0
DWIDTH 8 0
BBX 6 8 1 0
BITMAP
78
8C
84
84
84
84
C8
DC
ENDCHAR
STARTCHAR 03BC
ENCODING 956
SWIDTH 640 0
DWIDTH 8 0
BBX 5 9 1 -3
BITMAP
88
88
88
88
88
F8
80
80
80
ENDCHAR
STARTCHAR 03C0
ENCODING 960
SWIDTH 640 0
DWIDTH 8 0
BBX 6 6 1 0
BITMAP
FC
48
48
48
48
48
ENDCHAR
STARTCHAR 1E80
ENCODING 7808
SWIDTH 640 0
DWIDTH 8 0
BBX 8 12 0 0
BITMAP
20
30
08
00
E7
42
52
5A
5A
6A
64
64
ENDCHAR
STARTCHAR 1E81
ENCODING 7809
SWIDTH 640 0
DWIDTH 8 0
BBX 8 10 0 0
BITMAP
20
30
08
00
E7
52
5A
5A
6C
24
ENDCHAR
STARTCHAR 1E82
ENCODING 7810
SWIDTH 640 0
DWIDTH 8 0
BBX 8 12 0 0
BITMAP
04
0C
10
00
E7
42
52
5A
5A
6A
64
64
ENDCHAR
STARTCHAR 1E83
ENCODING 7811
SWIDTH 640 0
DWIDTH 8 0
BBX 8 10 0 0
BITMAP
04
0C
10
00
E7
52
5A
5A
6C
24
ENDCHAR
STARTCHAR 1E84
ENCODING 7812
SWIDTH 640 0
DWIDTH 8 0
BBX 8 11 0 0
BITMAP
24
24
00
E7
42
52
5A
5A
6A
64
64
ENDCHAR
STARTCHAR 1E85
ENCODING 7813
SWIDTH 640 0
DWIDTH 8 0
BBX 8 9 0 0
BITMAP
24
24
00
E7
52
5A
5A
6C
24
ENDCHAR
STARTCHAR 1EF2
ENCODING 7922
SWIDTH 640 0
DWIDTH 8 0
BBX 7 12 0 0
BITMAP
20
30
08
00
E6
24
24
18
10
10
10
3C
ENDCHAR
STARTCHAR 1EF3
ENCODING 7923
SWIDTH 640 0
DWIDTH 8 0
BBX 7 12 0 -2
BITMAP
20
30
08
00
E6
44
24
18
18
10
10
60
ENDCHAR
STARTCHAR 2011
ENCODING 8209
SWIDTH 640 0
DWIDTH 8 0
BBX 6 1 1 3
BITMAP
FC
ENDCHAR
STARTCHAR 2013
ENCODING 8211
SWIDTH 640 0
DWIDTH 8 0
BBX 6 1 1 3
BITMAP
FC
ENDCHAR
STARTCHAR 2014
ENCODING 8212
SWIDTH 640 0
DWIDTH 8 0
BBX 8 1 0 3
BITMAP
FF
ENDCHAR
STARTCHAR 2018
ENCODING 8216
SWIDTH 640 0
DWIDTH 8 0
BBX 2 3 3 5
BITMAP
40
40
C0
ENDCHAR
STARTCHAR 2019
ENCODING 8217
SWIDTH 640 0
DWIDTH 8 0
BBX 2 3 3 5
BITMAP
C0
C0
80
ENDCHAR
STARTCHAR 201A
ENCODING 8218
SWIDTH 640 0
DWIDTH 8 0
BBX 2 3 3 -1
BITMAP
C0
C0
80
ENDCHAR
STARTCHAR 201C
ENCODING 8220
SWIDTH 640 0
DWIDTH 8 0
BBX 6 3 1 5
BITMAP
44
48
D8
ENDCHAR
STARTCHAR 201D
ENCODING 8221
SWIDTH 640 0
DWIDTH 8 0
BBX 6 3 1 5
BITMAP
6C
48
98
ENDCHAR
STARTCHAR 201E
ENCODING 8222
SWIDTH 640 0
DWIDTH 8 0
BBX 6 3 1 -1
BITMAP
6C
48
98
ENDCHAR
STARTCHAR 2020
ENCODING 8224
SWIDTH 640 0
DWIDTH 8 0
BBX 4 6 2 2
BITMAP
40
40
F0
40
40
40
ENDCHAR
STARTCHAR 2021
ENCODING 8225
SWIDTH 640 0
DWIDTH 8 0
BBX 4 6 2 2
BITMAP
40
40
F0
40
F0
40
ENDCHAR
STARTCHAR 2022
ENCODING 8226
SWIDTH 640 0
DWIDTH 8 0
BBX 3 3 2 2
BITMAP
E0
E0
E0
ENDCHAR
STARTCHAR 2026
ENCODING 8230
SWIDTH 640 0
DWIDTH 8 0
BBX 6 1 1 0
BITMAP
B4
ENDCHAR
STARTCHAR 2030
ENCODING 8240
SWIDTH 640 0
DWIDTH 8 0
BBX 10 8 0 0
BITMAP
6000
9200
9400
6800
17C0
2940
4940
07C0
ENDCHAR
STARTCHAR 2032
ENCODING 8242
SWIDTH 640 0
DWIDTH 8 0
BBX 2 3 3 5
BITMAP
40
40
80
ENDCHAR
STARTCHAR 2033
ENCODING 8243
SWIDTH 640 0
DWIDTH 8 0
BBX 6 3 1 5
BITMAP
2C
48
D0
ENDCHAR
STARTCHAR 2039
ENCODING 8249
SWIDTH 640 0
DWIDTH 8 0
BBX 3 5 2 1
BITMAP
20
60
C0
60
20
ENDCHAR
STARTCHAR 203A
ENCODING 8250
SWIDTH 640 0
DWIDTH 8 0
BBX 2 5 3 1
BITMAP
80
C0
40
C0
80
ENDCHAR
STARTCHAR 2044
ENCODING 8260
SWIDTH 640 0
DWIDTH 8 0
BBX 6 4 1 1
BITMAP
04
18
60
80
ENDCHAR
STARTCHAR 2074
ENCODING 8308
SWIDTH 640 0
DWIDTH 8 0
BBX 4 5 2 3
BITMAP
20
60
A0
F0
20
ENDCHAR
STARTCHAR 20A3
ENCODING 8355
SWIDTH 640 0
DWIDTH 8 0
BBX 7 8 0 0
BITMAP
7E
22
20
38
20
FC
20
78
ENDCHAR
STARTCHAR 20A9
ENCODING 8361
SWIDTH 640 0
DWIDTH 8 0
BBX 8 8 0 0
BITMAP
E7
42
52
FF
5A
6A
64
64
ENDCHAR
STARTCHAR 20AC
ENCODING 8364
SWIDTH 640 0
DWIDTH 8 0
BBX 6 8 1 0
BITMAP
3C
44
44
F0
80
F0
44
38
ENDCHAR
STARTCHAR 2122
ENCODING 8482
SWIDTH 640 0
DWIDTH 8 0
BBX 8 4 0 4
BITMAP
F9
4F
4F
49
ENDCHAR
STARTCHAR 2202
ENCODING 8706
SWIDTH 640 0
DWIDTH 8 0
BBX 6 8 1 0
BITMAP
38
08
04
74
88
88
88
70
ENDCHAR
STARTCHAR 220F
ENCODING 8719
SWIDTH 640 0
DWIDTH 8 0
BBX 6 7 1 1
BITMAP
FC
84
84
84
84
84
84
ENDCHAR
STARTCHAR 2211
ENCODING 8721
SWIDTH 640 0
DWIDTH 8 0
BBX 6 8 1 0
BITMAP
F8
40
20
30
20
60
40
FC
ENDCHAR
STARTCHAR 2212
ENCODING 8722
SWIDTH 640 0
DWIDTH 8 0
BBX 6 1 1 3
BITMAP
FC
ENDCHAR
STARTCHAR 2215
ENCODING 8725
SWIDTH 640 0
DWIDTH 8 0
BBX 6 13 1 -2
BITMAP
0C
08
08
08
10
10
30
20
20
40
40
40
80
ENDCHAR
STARTCHAR 221A
ENCODING 8730
SWIDTH 640 0
DWIDTH 8 0
BBX 6 8 1 0
BITMAP
04
04
08
08
C8
50
30
30
ENDCHAR
STARTCHAR 221E
ENCODING 8734
SWIDTH 640 0
DWIDTH 8 0
BBX 8 4 0 2
BITMAP
66
99
99
66
ENDCHAR
STARTCHAR 222B
ENCODING 8747
SWIDTH 640 0
DWIDTH 8 0
BBX 8 12 0 -3
BITMAP
0F
08
10
10
10
10
10
10
10
10
10
F0
ENDCHAR
STARTCHAR 2248
ENCODING 8776
SWIDTH 640 0
DWIDTH 8 0
BBX 6 4 1 2
BITMAP
E4
98
E4
98
ENDCHAR
STARTCHAR 2260
ENCODING 8800
SWIDTH 640 0
DWIDTH 8 0
BBX 6 6 1 1
BITMAP
08
FC
10
20
FC
40
ENDCHAR
STARTCHAR 2264
ENCODING 8804
SWIDTH 640 0
DWIDTH 8 0
BBX 6 7 1 1
BITMAP
04
18
E0
60
1C
00
FC
ENDCHAR
STARTCHAR 2265
ENCODING 8805
SWIDTH 640 0
DWIDTH 8 0
BBX 6 7 1 1
BITMAP
80
60
1C
18
E0
00
FC
ENDCHAR
STARTCHAR 25CA
ENCODING 9674
SWIDTH 640 0
DWIDTH 8 0
BBX 5 8 1 0
BITMAP
30
30
48
48
C8
48
30
30
ENDCHAR
STARTCHAR FB01
ENCODING 64257
SWIDTH 640 0
DWIDTH 8 0
BBX 8 8 0 0
BITMAP
3C
20
FC
24
24
24
24
2F
ENDCHAR
STARTCHAR FB02
ENCODING 64258
SWIDTH 640 0
DWIDTH 8 0
BBX 7 8 0 0
BITMAP
3C
24
FC
24
24
24
24
2E
ENDCHAR
ENDFONT
